<?xml version="1.0" encoding="UTF-8" standalone="no"?>
<!-- Created with Inkscape (http://www.inkscape.org/) -->

<svg
   width="266.70001mm"
   height="266.70004mm"
   viewBox="0 0 266.70001 266.70004"
   version="1.1"
   id="svg5"
   inkscape:version="1.1.1 (3bf5ae0d25, 2021-09-20)"
   sodipodi:docname="lefttop.svg"
   xmlns:inkscape="http://www.inkscape.org/namespaces/inkscape"
   xmlns:sodipodi="http://sodipodi.sourceforge.net/DTD/sodipodi-0.dtd"
   xmlns="http://www.w3.org/2000/svg"
   xmlns:svg="http://www.w3.org/2000/svg">
  <sodipodi:namedview
     id="namedview7"
     pagecolor="#ffffff"
     bordercolor="#666666"
     borderopacity="1.0"
     inkscape:pageshadow="2"
     inkscape:pageopacity="0.0"
     inkscape:pagecheckerboard="0"
     inkscape:document-units="mm"
     showgrid="false"
     fit-margin-top="0"
     fit-margin-left="0"
     fit-margin-right="0"
     fit-margin-bottom="0"
     inkscape:zoom="0.54929737"
     inkscape:cx="661.75449"
     inkscape:cy="392.31937"
     inkscape:window-width="1920"
     inkscape:window-height="1057"
     inkscape:window-x="1358"
     inkscape:window-y="-8"
     inkscape:window-maximized="1"
     inkscape:current-layer="layer1" />
  <defs
     id="defs2" />
  <g
     inkscape:label="Layer 1"
     inkscape:groupmode="layer"
     id="layer1"
     transform="translate(149.01744,100.99335)">
    <path
       style="fill:#ffffff;stroke-width:0.264583"
       d="m -149.01744,32.35665 v -133.35 H -15.667434 117.68257 v 3.704162 c 0,2.780801 -0.0824,3.707038 -0.33073,3.715685 -0.1819,0.0063 -8.90323,0.01047 -19.380734,0.0092 -14.30728,-0.0017 -19.26387,0.07771 -19.90904,0.319211 -1.09814,0.411049 -24.12937,23.330001 -25.33347,25.209972 -1.30556,2.038379 -6.92405,7.73307 -8.51603,8.631526 -1.78531,1.007565 -57.46229,56.9586503 -57.95547,58.2407947 -0.2454,0.63796072 -0.31726,5.0542165 -0.295,18.1284513 0.0255,14.980712 -0.0231,17.337538 -0.36447,17.678932 -0.34137,0.341366 -2.71022,0.390383 -17.75966,0.367488 -15.63557,-0.02379 -17.45175,0.01701 -18.22881,0.40952 -1.04536,0.528021 -54.992006,54.239987 -57.111666,56.863207 -0.8231,1.018646 -3.49116,3.757083 -5.92903,6.085417 -6.7978,6.492374 -26.05969,25.828794 -26.61992,26.722924 -0.47526,0.75852 -0.49738,1.67732 -0.49832,20.70364 l -9.9e-4,19.9099 h -4.23334 -4.23333 z m 13.28189,76.79832 c 2.08105,-2.14479 7.25728,-7.4133 11.50272,-11.70782 4.24544,-4.294513 7.9612,-8.118367 8.25726,-8.497451 0.52301,-0.669703 0.53926,-1.047671 0.57306,-13.331124 0.0363,-13.193907 0.0168,-13.431042 -1.05692,-12.833817 -0.22612,0.125778 -5.73918,5.567662 -12.25124,12.093078 -9.23195,9.25089 -11.83991,12.008592 -11.83924,12.519002 4.8e-4,0.360032 -0.009,6.131481 -0.0211,12.825442 -0.0121,6.69396 -0.0125,12.31966 -8.8e-4,12.50157 0.0628,0.98268 1.3206,0.0545 4.83637,-3.56888 z m 50.972586,-51.156074 c 15.29107,-15.372729 21.60282,-21.885581 21.60282,-22.291147 v -0.572974 l -12.37734,-0.06877 c -10.29357,-0.05719 -12.49848,-0.0053 -13.09688,0.308015 -0.68485,0.358619 -17.941216,17.491983 -18.345916,18.21515 -0.25276,0.451644 -0.37609,25.417726 -0.12755,25.819866 0.1047,0.169415 0.3145,0.30803 0.46621,0.30803 0.15171,0 9.997106,-9.773176 21.878656,-21.718172 z m -22.306416,-16.118529 32.796736,-32.80962 16.81661,0.00132 c 14.10724,0.00106 16.89937,-0.059222 17.33021,-0.3742505 0.50487,-0.3691546 0.51475,-1.2302993 0.58177,-50.6777065 l 0.0682,-50.302209 -0.65146,-0.651462 -0.65146,-0.651463 h -49.6022 -49.602196 l -0.55039,0.699714 -0.5504,0.699714 0.0682,50.253918 c 0.0675,49.7903526 0.073,50.2574665 0.59363,50.6381332 0.45124,0.3299486 4.06609,0.3804364 25.59447,0.3574679 13.78795,-0.014711 25.189856,0.047945 25.337556,0.1392291 0.1477,0.091286 0.26855,0.2818342 0.26855,0.4234392 0,0.141605 -1.76507,2.0098116 -3.92238,4.1515716 -9.647806,9.57825 -47.042106,47.535501 -47.331256,48.04379 -0.34606,0.608327 -0.49762,12.357738 -0.16372,12.691639 0.097,0.09701 0.3106,0.17639 0.47462,0.17639 0.16402,0 15.05676,-14.764327 33.09496,-32.809618 z M -50.902154,0.89355802 c -1.11622,-0.0850397 -2.11782,-0.24339287 -2.22575,-0.3518985 -0.10794,-0.10850563 -0.1758,-0.7378727 -0.15081,-1.3985928 0.0363,-0.96048522 -0.0852,-1.33199992 -0.60649,-1.85323972 l -0.65193,-0.651928 h -20.62022 c -23.49665,0 -21.67223,-0.188005 -21.92536,2.2593988 -0.0765,0.73974862 -0.31806,1.45679862 -0.55352,1.64320549 -0.64913,0.51389491 -5.190236,0.44639708 -5.721676,-0.085045 -0.36797,-0.36796927 -0.41578,-2.10092939 -0.41578,-15.07194029 0,-14.108679 -0.0187,-14.66618 -0.5008,-14.924191 -0.3859,-0.206526 -0.79566,-0.107223 -1.78594,0.432816 -2.61334,1.425165 -7.50305,3.762105 -10.56652,5.050062 -3.84709,1.617409 -12.10766,4.55611 -12.80705,4.55611 -0.2798,0 -0.72265,-0.306062 -0.98411,-0.680141 -0.26145,-0.374076 -1.04092,-1.40562 -1.73214,-2.292321 -0.69123,-0.886698 -1.25677,-1.75668 -1.25677,-1.933294 0,-0.47507 0.54524,-0.831067 1.5875,-1.0365 1.41289,-0.27849 6.25305,-1.84897 8.88958,-2.884393 8.13202,-3.193613 16.06034,-7.29624 23.455726,-12.137509 4.74254,-3.104621 4.7273,-2.915748 0.52917,-6.55904 -3.282476,-2.848658 -7.925706,-6.416929 -10.457626,-8.036581 -2.10448,-1.346216 -2.06589,-1.85727 0.27117,-3.591119 0.98226,-0.728736 2.06469,-1.401352 2.40538,-1.494697 0.48794,-0.133689 1.27225,0.272965 3.69449,1.915541 3.613756,2.450579 9.363576,6.876889 11.428776,8.798071 0.80036,0.744551 1.66281,1.35446 1.91655,1.355354 0.25373,7.94e-4 1.38483,-0.814435 2.51354,-1.811842 4.64366,-4.103469 10.37007,-10.592494 13.68254,-15.504719 0.7895,-1.170776 1.7401,-2.538773 2.11245,-3.039986 0.68539,-0.922586 0.89785,-2.228273 0.41149,-2.528859 -0.50491,-0.312052 -30.712406,-0.138739 -31.307276,0.179626 -0.30424,0.162825 -1.87154,1.558367 -3.48289,3.101205 -4.89757,4.689335 -10.19741,8.9416 -15.74432,12.632273 -3.90661,2.599287 -5.94971,3.79893 -6.46993,3.79893 -0.72632,0 -4.66804,-3.747263 -4.58293,-4.356849 0.0485,-0.347525 0.70376,-0.842997 1.97253,-1.491552 4.09327,-2.092359 11.5485,-7.371083 16.32493,-11.558974 5.45644,-4.784096 13.14929,-13.568444 14.305156,-16.334835 0.59669,-1.428079 1.21935,-1.578752 5.31471,-1.286077 4.66829,0.333619 5.35422,0.904614 3.09183,2.573753 -0.46891,0.345952 -1.29166,1.211544 -1.82834,1.923539 -0.53668,0.711994 -1.43522,1.823754 -1.99676,2.470578 -0.71848,0.827596 -0.99765,1.376344 -0.94224,1.852083 l 0.0787,0.676041 16.29847,0.02819 16.29846,0.02819 1.42862,0.765564 c 1.69092,0.906125 1.91623,1.572375 0.95725,2.830633 -0.35436,0.464941 -1.29414,2.095505 -2.0884,3.623474 -5.09202,9.795804 -15.14817,21.652556 -23.40817,27.599509 -1.43588,1.033788 -1.76446,1.508511 -1.50754,2.178029 0.13974,0.364167 2.36081,0.404751 20.34933,0.371816 11.10586,-0.02035 20.3184,0.04086 20.47233,0.135996 0.19273,0.119115 0.27986,6.343248 0.27986,19.99179 0,19.32350622 -0.0128,19.82567219 -0.51177,20.09272145 -0.28147,0.15064055 -0.66843,0.25417195 -0.8599,0.23007105 -0.19146,-0.024104 -1.2614,-0.11339773 -2.37762,-0.19843746 z m -2.86528,-10.34107572 c 0.51275,-0.512757 0.52916,-0.8819443 0.52916,-11.9062513 0,-11.024307 -0.0164,-11.393493 -0.52916,-11.90625 -0.52022,-0.520213 -0.88195,-0.529167 -21.38069,-0.529167 -17.58637,0 -20.93193,0.05878 -21.3651,0.375383 -0.49275,0.360151 -0.5166,0.842952 -0.5878,11.898186 -0.0726,11.27836 -0.0628,11.5341993 0.46302,12.0600343 0.53085,0.530852 0.78541,0.537231 21.43931,0.537231 20.54931,0 20.91102,-0.0089 21.43126,-0.529166 z M -133.26985,42.706619 c 3.56258,-3.548092 6.47741,-6.599373 6.47741,-6.780626 0,-0.795263 -0.70107,-0.850633 -7.05576,-0.557257 -3.51686,0.162364 -6.49343,0.394054 -6.61458,0.514871 -0.22817,0.227526 -0.60223,12.479303 -0.39965,13.089636 0.0629,0.189595 0.33959,0.308658 0.6148,0.264584 0.2752,-0.04407 3.4152,-2.983119 6.97778,-6.531208 z m 84.613146,-15.747665 c 24.44045,-0.101171 26.17848,-0.138419 26.65677,-0.571272 0.50292,-0.455134 0.51166,-1.473589 0.51166,-59.60173 0,-54.657872 -0.0332,-59.175342 -0.43788,-59.622536 -0.38877,-0.429585 -0.90349,-0.483854 -4.5892,-0.483854 -3.71517,0 -4.19824,0.05184 -4.5979,0.49346 -0.41607,0.459759 -0.44569,4.195848 -0.43363,54.703819 0.0117,48.886755 -0.0279,54.2687 -0.40318,54.804458 l -0.41613,0.5941 -19.10114,0.0094 c -14.47606,0.0071 -19.24073,0.08718 -19.67762,0.330729 -0.71661,0.399473 -8.22027,7.771945 -8.56407,8.414353 -0.17848,0.333479 -0.13484,0.585492 0.15086,0.871183 0.31591,0.315913 0.86809,0.376727 2.57916,0.284054 1.19745,-0.06485 13.94249,-0.166618 28.3223,-0.226142 z m -69.056366,-0.185235 c 0.31786,-0.160194 2.45316,-2.197087 4.74511,-4.526425 3.8372,-3.899795 4.78367,-5.196888 3.83646,-5.257719 -1.5014,-0.09642 -28.64052,0.146466 -30.67277,0.274513 -0.0987,0.0062 -0.36664,0.198409 -0.59531,0.427086 -0.62987,0.629864 -0.61107,8.190309 0.0221,8.889955 0.41062,0.453729 1.11179,0.483854 11.26218,0.483854 7.35086,0 11.00976,-0.09346 11.40222,-0.291264 z M 9.280936,-36.357483 c 12.03558,-12.035584 21.88288,-22.029807 21.88288,-22.209385 0,-0.179578 -0.11614,-0.39828 -0.25808,-0.486005 -0.19536,-0.12074 -22.16193,-0.256921 -25.00074,-0.154993 -0.56329,0.02021 -18.31983,17.552019 -19.19521,18.95225 -0.47829,0.765051 -0.50776,1.48187 -0.53556,13.023769 -0.0162,6.717784 0.0461,12.336351 0.13841,12.485701 0.0923,0.149349 0.37428,0.271544 0.62662,0.271544 0.25525,0 10.16707,-9.708274 22.34168,-21.882881 z m -18.53435,-19.590558 c 2.6579,-2.795828 11.06403,-11.330453 29.30473,-29.752668 4.46381,-4.508229 6.21771,-6.44994 6.21771,-6.88351 v -0.603927 l -5.95313,-0.0747 c -3.27422,-0.04109 -6.20053,-0.01419 -6.50291,0.05976 -0.66371,0.162325 0.76705,-1.2315 -14.29749998,13.928365 -6.85632002,6.899702 -12.58914002,12.783035 -12.73959002,13.074077 -0.21363,0.413234 -0.51182,11.31158 -0.35654,13.030729 0.0164,0.181901 0.33179,0.330729 0.70081,0.330729 0.51244,0 1.36912,-0.734414 3.62642,-3.108855 z m 49.44896,-11.643411 c 0.38355,-0.253703 6.03902,-5.862484 12.56771,-12.463959 9.30884,-9.412609 11.87035,-12.145964 11.87035,-12.666668 v -0.663985 l -12.51665,0.02811 c -6.88415,0.01546 -12.68067,0.119899 -12.88114,0.232089 -0.20047,0.112191 -5.84916,5.663318 -12.55263,12.335839 -10.79589,10.74605 -12.62962,12.741789 -12.12198,13.192962 0.0364,0.03234 5.00724,0.12424 11.04636,0.204235 6.03911,0.08 11.63505,0.17182 12.43542,0.204052 1.01924,0.04105 1.66412,-0.07959 2.15256,-0.402673 z m -45.973,-17.701787 c 5.14329002,-5.131994 6.78513,-6.924401 6.72544002,-7.342188 -0.0774,-0.541718 -0.21185,-0.554126 -6.75516002,-0.623399 -6.2405,-0.06607 -6.70874,-0.03813 -7.17487,0.427991 -0.45487,0.454872 -0.51002,1.08853 -0.62795,7.21443 -0.0711,3.693668 -0.0798,6.805056 -0.0194,6.914197 0.36651,0.661953 1.73042,-0.482937 7.85196,-6.591031 z"
       id="path39" />
  </g>
</svg>
