<?xml version="1.0" encoding="UTF-8" standalone="no"?>
<!-- Created with Inkscape (http://www.inkscape.org/) -->

<svg
   width="266.70001mm"
   height="266.69974mm"
   viewBox="0 0 266.70001 266.69974"
   version="1.1"
   id="svg633"
   inkscape:version="1.1.1 (3bf5ae0d25, 2021-09-20)"
   sodipodi:docname="leftbottom.svg"
   xmlns:inkscape="http://www.inkscape.org/namespaces/inkscape"
   xmlns:sodipodi="http://sodipodi.sourceforge.net/DTD/sodipodi-0.dtd"
   xmlns="http://www.w3.org/2000/svg"
   xmlns:svg="http://www.w3.org/2000/svg">
  <sodipodi:namedview
     id="namedview635"
     pagecolor="#ffffff"
     bordercolor="#666666"
     borderopacity="1.0"
     inkscape:pageshadow="2"
     inkscape:pageopacity="0.0"
     inkscape:pagecheckerboard="0"
     inkscape:document-units="mm"
     showgrid="false"
     inkscape:zoom="0.77682379"
     inkscape:cx="859.26822"
     inkscape:cy="382.96973"
     inkscape:window-width="1920"
     inkscape:window-height="1057"
     inkscape:window-x="1358"
     inkscape:window-y="-8"
     inkscape:window-maximized="1"
     inkscape:current-layer="layer1" />
  <defs
     id="defs630" />
  <g
     inkscape:label="Layer 1"
     inkscape:groupmode="layer"
     id="layer1"
     transform="translate(117.68258,95.88441)">
    <path
       style="fill:#ffffff;stroke-width:0.264583"
       d="M -117.68258,37.465595 V -95.88441 h 4.23333 4.23334 v 19.819992 19.81999 l 1.03084,1.280531 c 1.03564,1.286489 18.255059,18.361168 26.239629,26.019073 2.35179,2.255573 4.82996,4.815417 5.50705,5.688542 0.67708,0.873125 13.67525,13.9952127 28.88482,29.1601933 19.59015,19.5327167 27.94479,27.6942927 28.65184,27.9897157 0.87669,0.366303 3.09212,0.413176 18.21557017,0.385382 14.93609983,-0.02745 17.26978983,0.02064 17.61207983,0.362939 0.34259,0.34258 0.38825,2.644291 0.34649,17.465123 -0.0333,11.821491 0.0422,17.405959 0.24562,18.161366 0.25806,0.958347 3.70497,4.5134 28.3822,29.272674 19.37863,19.443059 28.62476,28.540879 29.81794,29.339689 1.87348,1.25425 7.31235,6.86018 8.60678,8.87113 0.43758,0.67981 6.11484,6.49803 12.61614,12.92937 8.650471,8.55739 12.056391,11.76266 12.700001,11.9518 0.53919,0.15845 8.19894,0.25075 19.79717,0.23855 10.40474,-0.011 19.06654,-0.014 19.24844,-0.007 0.24929,0.01 0.33073,0.99036 0.33073,3.98194 v 3.96875 H 15.667429 -117.68258 V 37.465598 Z m 108.8403692,124.864135 0.69714,-0.54837 v -50.25163 c 0,-49.898857 -0.004,-50.255349 -0.52917,-50.780801 -0.51813,-0.518125 -0.88106,-0.52914 -17.3963502,-0.527883 l -16.86719,0.0013 -32.80419,-32.817116 C -95.159331,7.9802608 -108.70981,-5.3803698 -108.94718,-5.3347451 c -0.34178,0.065696 -0.41153,0.9667293 -0.47215,6.09949281 -0.0528,4.47066999 0.0154,6.18718619 0.26458,6.66192009 0.18464,0.3517318 6.52696,6.8699192 14.094049,14.4848612 21.04204,21.175126 36.79876,37.12145 36.99697,37.442165 0.62406,1.009753 0.85775,1.001234 -25.29393,0.922221 -21.737169,-0.06568 -25.273069,-0.02315 -25.727869,0.309388 -0.523,0.382418 -0.52781,0.791395 -0.59543,50.687707 l -0.0682,50.30217 0.65146,0.65146 0.65146,0.65146 h 49.453439 49.4534302 z m -61.8768202,-7.83588 c -13.83484,-1.79319 -21.79382,-8.84192 -24.37675,-21.58883 -0.76108,-3.75599 -0.70515,-18.82188 0.15885,-42.78734 0.37959,-10.529067 0.80632,-19.618995 0.95376,-20.31613 0.18681,-0.883372 1.01489,-1.070887 3.68497,-0.834435 1.30969,0.11598 3.40847,0.219335 4.66396,0.229677 1.65463,0.01363 2.37043,0.124508 2.60154,0.402982 0.50186,0.604708 0.0644,1.429673 -1.06316,2.004912 -1.72989,0.882526 -1.76019,1.005364 -2.086,8.458827 -0.16221,3.710782 -0.4081,8.949532 -0.54642,11.641667 -0.50311,9.79218 -0.83655,24.11738 -0.73287,31.48542 0.0965,6.8593 0.16138,7.74383 0.71786,9.78959 1.71225,6.29458 5.59597,10.69011 11.36348,12.86099 3.6157,1.36095 9.31634,1.75912 14.81058,1.03447 10.42496,-1.37499 21.33371,-7.18936 30.28775,-16.1434 1.09197,-1.09197 2.21294,-1.9854 2.49105,-1.9854 0.30136,0 0.86686,0.50775 1.3997,1.25677 0.49173,0.69123 1.47317,1.82 2.18099,2.50839 1.44704,1.40732 1.49756,2.03599 0.23963,2.98172 -0.38713,0.29104 -1.47947,1.24922 -2.42743,2.12929 -10.2234,9.49117 -20.78858,14.65929 -34.0563,16.65914 -2.34045,0.35278 -8.23829,0.47441 -10.26519,0.21169 z m 166.83492,7.83062 c 0.11838,-0.19154 0.13288,-0.49542 0.0322,-0.67527 -0.41713,-0.74537 -24.54642,-24.77091 -25.04094,-24.93327 -0.29629,-0.0973 -6.07511,-0.11441 -12.84183,-0.0381 l -12.30313,0.13879 -0.0823,0.57851 c -0.0651,0.45705 2.46226,3.10412 12.03854,12.60899 6.66649,6.61677 12.20414,12.11501 12.3059,12.21831 0.44173,0.44846 2.50075,0.52132 13.75598,0.48682 9.54028,-0.0293 11.96333,-0.10608 12.13559,-0.3848 z M 9.4092992,162.12902 c 0.4059,-0.44852 0.43351,-4.88212 0.37173,-59.70114 l -0.0667,-59.216641 -0.66146,-0.48769 c -0.63258,-0.466397 -1.89642,-0.488567 -28.9462602,-0.507746 -29.47351,-0.0209 -28.96037,-0.03974 -28.51021,1.046996 0.2343,0.565655 7.95511,8.071361 8.70425,8.461761 0.43684,0.227645 5.57233,0.302377 19.53997,0.284343 17.6124602,-0.02273 18.9830402,0.0078 19.45330017,0.433371 0.49506,0.448022 0.50575,1.618544 0.49849,54.586936 -0.004,29.77101 -0.006,54.26943 -0.004,54.44093 0.002,0.17151 0.19083,0.49893 0.41951,0.72761 0.34283,0.34283 1.14795003,0.41577 4.58920003,0.41577 3.70915,0 4.2222,-0.0539 4.61189,-0.4845 z m 22.8729598,-0.19597 c 0.0589,-0.41188 -1.61729,-2.24012 -6.7411,-7.35268 -7.6181,-7.60138 -7.89638,-7.78255 -7.87991,-5.12987 0.071,11.42539 0.10535,12.08719 0.65654,12.63839 0.51101,0.511 0.81765,0.53069 7.2099,0.46302 6.52544,-0.0691 6.67797,-0.0831 6.75457,-0.61886 z m 25.14922,0.44628 c 0.19622,-0.12435 0.31529,-0.40918 0.26459,-0.63294 -0.0507,-0.22377 -8.01223,-8.42482 -17.69229,-18.22455 -9.68005,-9.79973 -18.36072,-18.62137 -19.29037,-19.60363 -1.62703,-1.71911 -2.41886,-2.13325 -2.82434,-1.47716 -0.30466,0.49296 -0.10598,12.4225 0.21717,13.03966 0.34057,0.65043 25.43668,26.00697 26.39414,26.66805 0.58712,0.40537 1.3896,0.46099 6.62122,0.45897 3.27421,-0.001 6.11366,-0.10405 6.30988,-0.2284 z m 4.8295,-34.04597 c 0.13074,-0.0808 0.2377,-0.29534 0.2377,-0.47676 0,-0.43856 -43.51803,-43.930646 -44.07387,-44.047587 -0.23779,-0.05003 -0.54992,0.02662 -0.69364,0.170342 -0.38358,0.383577 -0.28035,24.564845 0.10798,25.293625 0.48574,0.91158 17.88703,18.50859 18.79493,19.00632 0.7694,0.42181 1.81864,0.44819 13.11276,0.32973 6.75205,-0.0708 12.38341,-0.19487 12.51414,-0.27567 z M -77.783411,52.229346 c 0.17463,-0.174625 0.3175,-0.477981 0.3175,-0.674122 0,-0.462235 -7.8474,-8.4591 -8.78426,-8.951566 -0.58311,-0.306517 -2.69525,-0.375563 -11.48854,-0.375563 -9.654099,0 -10.824379,0.04552 -11.257929,0.437883 -0.4283,0.387601 -0.48386,0.899358 -0.48386,4.456909 0,3.546819 0.0564,4.070101 0.48034,4.453726 0.42659,0.386056 2.10672,0.459899 15.015109,0.659916 7.99412,0.12387 14.83837,0.244367 15.20945,0.267769 0.37108,0.02339 0.81757,-0.100327 0.99219,-0.274952 z m -17.95025,-18.321773 c 0.18891,-0.227618 0.22889,-0.541401 0.0985,-0.773374 -0.56824,-1.011301 -12.880389,-13.131105 -13.339489,-13.131105 -0.61895,0 -0.57646,-0.560234 -0.5117,6.746876 0.0451,5.093377 0.12138,6.160897 0.46775,6.548437 0.34051,0.380984 0.9105,0.469189 3.21709,0.49783 2.37351,0.02947 7.859829,0.293574 9.319309,0.448611 0.23684,0.02516 0.57367,-0.126613 0.7485,-0.337275 z m 63.90838,-0.336502 c 0,-0.424762 -5.98293,-6.591991 -21.62498,-22.291147 -11.89374,-11.93715306 -21.73158,-21.703914 -21.86187,-21.703914 -0.1303,0 -0.34191,0.148828 -0.47025,0.330729 -0.13149,0.1863703 -0.1745,5.9024976 -0.0985,13.0958043 l 0.1348,12.7650767 8.73125,8.759117 c 4.80219,4.817515 9.08844,8.986517 9.525,9.264446 0.7565,0.481613 1.37735,0.502087 13.22917,0.436224 l 12.43542,-0.0691 z M -84.040421,6.0280221 c 0.0507,-0.2445968 0.059,-6.02652599 0.0184,-12.8487334 l -0.0738,-12.4040137 -8.29065,-8.365779 c -4.55986,-4.601178 -9.997169,-10.121951 -12.082899,-12.268383 -3.46732,-3.568213 -4.70054,-4.491226 -4.77233,-3.571875 -0.15977,2.045975 0.0894,25.748028 0.2742,26.081147 0.13526,0.243832 5.5896,5.776079 12.120759,12.2938783 11.83932,11.8150856 12.53064,12.4134171 12.80636,11.0837588 z"
       id="path667" />
  </g>
</svg>
