<?xml version="1.0" encoding="UTF-8" standalone="no"?>
<!-- Created with Inkscape (http://www.inkscape.org/) -->

<svg
   width="266.71414mm"
   height="266.70001mm"
   viewBox="0 0 266.71414 266.70001"
   version="1.1"
   id="svg1057"
   inkscape:version="1.1.1 (3bf5ae0d25, 2021-09-20)"
   sodipodi:docname="right-bottom.svg"
   xmlns:inkscape="http://www.inkscape.org/namespaces/inkscape"
   xmlns:sodipodi="http://sodipodi.sourceforge.net/DTD/sodipodi-0.dtd"
   xmlns="http://www.w3.org/2000/svg"
   xmlns:svg="http://www.w3.org/2000/svg">
  <sodipodi:namedview
     id="namedview1059"
     pagecolor="#ffffff"
     bordercolor="#666666"
     borderopacity="1.0"
     inkscape:pageshadow="2"
     inkscape:pageopacity="0.0"
     inkscape:pagecheckerboard="0"
     inkscape:document-units="mm"
     showgrid="false"
     inkscape:zoom="0.3884119"
     inkscape:cx="-32.18233"
     inkscape:cy="995.07766"
     inkscape:window-width="1920"
     inkscape:window-height="1057"
     inkscape:window-x="1358"
     inkscape:window-y="-8"
     inkscape:window-maximized="1"
     inkscape:current-layer="layer1" />
  <defs
     id="defs1054" />
  <g
     inkscape:label="Layer 1"
     inkscape:groupmode="layer"
     id="layer1"
     transform="translate(-114.93057,119.04496)">
    <path
       style="fill:#ffffff;stroke-width:0.264583"
       d="m 115.00379,143.75245 0.0732,-3.90261 19.84375,-0.13229 c 17.94196,-0.11961 19.91983,-0.17491 20.6375,-0.57697 1.18517,-0.66396 24.07964,-23.74901 24.61811,-24.82303 0.68583,-1.36793 7.39361,-8.07489 8.96618,-8.96509 0.8779,-0.49695 3.56555,-3.03077 7.78579,-7.34016 3.5448,-3.61967 16.05854,-16.22528 27.80833,-28.01246 11.74979,-11.78719 21.51132,-21.71268 21.6923,-22.05664 0.25334,-0.48147 0.32446,-4.64965 0.30905,-18.11249 -0.0173,-15.13544 0.0335,-17.5687 0.37757,-18.09388 l 0.39758,-0.60679 h 17.46954 c 15.58554,0 17.56086,-0.0463 18.3163,-0.42901 1.03724,-0.52552 55.52505,-54.793128 57.61529,-57.382449 0.82231,-1.018645 3.30807,-3.578489 5.52393,-5.688541 8.63137,-8.219248 26.22814,-25.82847 26.60607,-26.6249 0.3436,-0.72409 0.39834,-3.53376 0.39834,-20.44478 v -19.60532 h 4.10105 4.10104 v 133.35 133.35001 H 248.28765 114.93057 Z m 77.97645,-4.20357 c 0.74216,-0.14843 3.0954,-2.35782 13.16017,-12.3557 8.9482,-8.88873 12.2564,-12.33611 12.2564,-12.77204 0,-0.73897 -0.72214,-1.00146 -2.20895,-0.80293 -0.60409,0.0807 -5.92038,0.0539 -11.81397,-0.0595 -8.24721,-0.1587 -10.868,-0.13182 -11.37709,0.11671 -0.99341,0.48497 -24.87083,24.71388 -24.87083,25.23695 0,0.24884 0.0717,0.5241 0.15926,0.61169 0.22271,0.22271 23.58816,0.24622 24.69501,0.0248 z m 71.18353,-0.51221 c 0.19908,-0.19984 0.28019,-16.42544 0.27369,-54.74456 -0.009,-50.46414 0.0231,-54.4963 0.43168,-54.94776 0.42036,-0.46449 1.33101,-0.48766 19.51607,-0.4966 14.46017,-0.007 19.21268,-0.0871 19.64365,-0.33073 0.31269,-0.17674 2.37381,-2.08507 4.58027,-4.24072 3.09335,-3.02211 3.9929,-4.05182 3.92941,-4.49792 l -0.0824,-0.57855 -28.5565,0.0683 c -26.08591,0.0623 -28.59816,0.10596 -29.03802,0.50403 -0.46294,0.41895 -0.48137,2.71997 -0.47748,59.59529 0.002,32.53774 0.10168,59.3134 0.22099,59.50148 0.11932,0.18807 0.52838,0.4262 0.90902,0.52916 1.02528,0.27735 8.31676,-0.0273 8.64957,-0.36137 z m 109.10973,0.19244 c 0.40972,-0.45274 0.44222,-4.17189 0.44459,-50.86616 l 0.003,-50.3777 -0.58016,-0.47514 c -0.54988,-0.45035 -1.89295,-0.47314 -25.73744,-0.43665 -22.58496,0.0346 -25.16581,-0.004 -25.2407,-0.37368 -0.049,-0.24208 1.26781,-1.75432 3.1908,-3.6644 9.99506,-9.92799 47.78728,-48.319564 48.04723,-48.8093 0.28865,-0.5438 0.47624,-12.518956 0.19611,-12.518956 -0.0609,0 -0.27182,-0.06184 -0.46879,-0.137433 -0.22177,-0.0851 -12.74849,12.263944 -32.89612,32.429509 -17.89585,17.91182 -32.76017,32.68949 -33.03178,32.83928 -0.32591,0.17973 -6.11921,0.25947 -17.03577,0.2345 l -16.54191,-0.0378 -0.62518,0.58732 -0.62517,0.58732 v 50.22472 c 0,49.87194 0.004,50.22843 0.52916,50.75388 0.52541,0.52541 0.88195,0.52917 50.22983,0.52917 47.98348,0 49.71594,-0.0169 50.1427,-0.48844 z m -76.80288,-8.08434 c -0.2273,-0.27387 -0.30199,-4.81787 -0.28596,-17.39636 0.0119,-9.36411 0.0168,-17.17449 0.0107,-17.35639 -0.006,-0.1819 -0.26466,-0.33073 -0.57465,-0.33073 -0.36265,0 -1.75479,1.15575 -3.90409,3.24115 -4.40888,4.2778 -7.36262,6.81303 -7.93772,6.81303 -1.28982,0 -3.25589,-3.89825 -2.7015,-5.35641 0.13187,-0.34684 1.41199,-1.56316 2.8447,-2.70292 5.52619,-4.39623 12.9242,-12.41476 17.47601,-18.94185 1.84537,-2.64615 6.16332,-9.82207 6.16332,-10.24268 0,-0.15905 -0.19596,-0.48515 -0.43547,-0.72465 -0.39303,-0.39304 -1.56704,-0.42919 -12.04659,-0.37092 -8.4792,0.0471 -11.69327,-0.0176 -11.91564,-0.23995 -0.16748,-0.16748 -0.39137,-1.04124 -0.49754,-1.9417 -0.19433,-1.6481 0.0375,-2.81117 0.63627,-3.19189 0.1728,-0.10987 2.90379,-0.20159 6.06887,-0.20382 5.46873,-0.004 5.78197,-0.0313 6.3038,-0.55316 0.53322,-0.53322 0.54724,-0.76673 0.48456,-8.06929 -0.0355,-4.1361 10e-4,-7.58601 0.0817,-7.66648 0.0805,-0.0805 1.59823,-0.15462 3.3728,-0.1648 3.70596,-0.0212 4.12435,0.15406 3.23579,1.3559 -0.56063,0.75829 -0.58027,1.00706 -0.58027,7.35127 0,5.63068 0.0612,6.65383 0.42957,7.17972 0.42724,0.60997 0.4562,0.61279 5.35781,0.52189 l 4.92825,-0.0914 1.26514,0.79375 c 1.39004,0.87211 1.79857,1.73785 1.23616,2.61962 -0.19482,0.30546 -1.51362,2.8771 -2.93066,5.71476 -2.45471,4.91563 -6.36852,11.30674 -8.32069,13.58742 -0.50016,0.58432 -0.90724,1.35196 -0.90724,1.71078 0,0.706 0.17405,0.87823 4.38501,4.33932 7.82405,6.43075 8.84897,7.3809 8.82767,8.18373 -0.0234,0.8806 -2.38931,4.30818 -3.03878,4.40233 -0.38322,0.0555 -1.76396,-1.1717 -5.00725,-4.45063 -2.46297,-2.49002 -4.70019,-4.64616 -4.97159,-4.79141 -1.2698,-0.67958 -1.2534,-0.92222 -1.2534,18.53753 0,13.78017 -0.0767,18.24765 -0.3175,18.48844 -0.47356,0.47355 -5.08154,0.42884 -5.4816,-0.0532 z m 42.62911,0.0532 c -0.23824,-0.23825 -0.3175,-3.53043 -0.3175,-13.18816 0,-12.17625 -0.0264,-12.89451 -0.48837,-13.31263 -0.42641,-0.3859 -1.30018,-0.44472 -6.88713,-0.46367 -4.67356,-0.0159 -6.50362,0.0653 -6.78767,0.30106 -0.24489,0.20324 -0.38892,0.80068 -0.38892,1.61329 0,1.92131 -0.54463,2.34886 -2.99214,2.34886 -2.31512,0 -2.92082,-0.33627 -2.91207,-1.61668 0.003,-0.49328 0.008,-10.54093 0.0115,-22.32812 0.003,-11.78719 0.008,-21.70172 0.011,-22.03231 0.0131,-1.39645 -0.0828,-1.38332 10.10648,-1.38332 8.9294,0 9.47658,-0.0276 9.90377,-0.49964 0.40526,-0.44781 0.44741,-1.23124 0.40628,-7.55312 -0.0252,-3.87942 0.0186,-7.11798 0.0974,-7.1968 0.12268,-0.12269 4.96939,-0.22035 6.33602,-0.12767 0.61531,0.0417 0.58643,0.71709 -0.0662,1.5467 -0.49263,0.62628 -0.52917,1.07336 -0.52917,6.47528 0,5.67632 0.11867,6.62077 0.89951,7.15907 0.16012,0.11039 4.68269,0.18882 10.05017,0.17431 7.89492,-0.0214 9.80202,0.0414 9.98397,0.32847 0.25265,0.39861 0.32341,45.45207 0.0724,46.10614 -0.12862,0.33524 -0.5987,0.41852 -2.36233,0.41852 -2.556,0 -3.0333,-0.28645 -3.0333,-1.82041 0,-1.95989 0.16955,-1.9181 -7.67837,-1.89266 -5.87088,0.019 -7.06537,0.0872 -7.40033,0.42237 -0.34402,0.34423 -0.40513,2.17941 -0.44054,13.23114 -0.0309,9.63962 -0.12121,12.92799 -0.36312,13.21948 -0.41198,0.4964 -4.74706,0.55482 -5.23139,0.0705 z m -0.80136,-32.92872 c 0.44033,-0.3985 0.48386,-0.95249 0.48386,-6.15884 0,-4.74969 -0.0699,-5.82079 -0.41188,-6.30899 -0.40647,-0.58031 -0.496,-0.58799 -6.81302,-0.58399 -3.52063,0.002 -6.53215,0.0915 -6.69227,0.19844 -0.76638,0.51172 -0.8995,1.48028 -0.8995,6.54438 0,5.0641 0.13312,6.03266 0.8995,6.54439 0.16012,0.10691 3.13925,0.19621 6.62029,0.19844 5.52176,0.004 6.39089,-0.0518 6.81302,-0.43383 z m 21.43125,0 c 0.44033,-0.3985 0.48386,-0.95249 0.48386,-6.15884 0,-4.74969 -0.0699,-5.82079 -0.41188,-6.30899 -0.40758,-0.5819 -0.48339,-0.58804 -7.25684,-0.58804 h -6.84496 l -0.55132,0.70089 c -0.52071,0.66197 -0.55003,1.00838 -0.52802,6.23806 0.0214,5.09286 0.0641,5.57799 0.53212,6.04598 0.4756,0.47561 0.95213,0.50882 7.301,0.50882 5.94891,0 6.85226,-0.0544 7.27604,-0.43788 z M 338.25306,79.39254 c 0.49526,-0.49526 0.52917,-0.88194 0.52917,-6.03484 0,-4.04948 -0.0894,-5.62792 -0.33793,-5.96783 -0.30597,-0.41844 -0.96266,-0.46214 -6.9442,-0.46214 -6.45614,0 -6.61683,0.013 -7.07041,0.57318 -0.40691,0.5025 -0.46413,1.20782 -0.46413,5.72063 0,5.0171 0.13423,5.98669 0.8995,6.49768 0.16012,0.10692 3.11886,0.19621 6.57498,0.19844 5.934,0.004 6.31331,-0.0254 6.81302,-0.52512 z m 21.47656,0.0913 c 0.4397,-0.39792 0.48386,-0.94861 0.48386,-6.03484 0,-4.22614 -0.0858,-5.71428 -0.35023,-6.07593 -0.32395,-0.44303 -0.87479,-0.47614 -7.34219,-0.44134 -6.74196,0.0363 -7.00851,0.0574 -7.45498,0.59 -0.40701,0.48555 -0.46302,1.19035 -0.46302,5.82675 0,5.24718 0.003,5.27773 0.64943,5.92381 l 0.64943,0.64944 h 6.67193 c 5.83699,0 6.73247,-0.0548 7.15577,-0.43789 z m -139.94246,59.50473 c 0.89558,-0.56719 25.9279,-25.9179 26.32059,-26.65538 0.33216,-0.62377 0.55639,-12.5321 0.24537,-13.03073 -0.11346,-0.1819 -0.38384,-0.33073 -0.60083,-0.33073 -0.217,0 -4.40113,4.0779 -9.29808,9.06198 -4.89694,4.98409 -13.64206,13.82643 -19.43359,19.64965 -5.79154,5.82321 -10.53006,10.77423 -10.53006,11.00226 0,0.22802 0.0794,0.49396 0.17639,0.59098 0.097,0.097 2.92474,0.17576 6.28385,0.17499 5.35317,-0.001 6.19749,-0.0584 6.83636,-0.46302 z m 26.12631,-0.0648 c 0.54932,-0.54932 0.56364,-0.82982 0.65129,-12.76252 0.008,-1.13691 -0.0767,-1.40217 -0.47403,-1.47869 -0.33988,-0.0654 -2.5086,1.90503 -7.27604,6.61096 -3.73551,3.68731 -6.83168,6.85999 -6.88036,7.05039 -0.27504,1.07556 -0.069,1.10903 6.82709,1.10903 6.27011,0 6.65107,-0.0282 7.15205,-0.52917 z M 227.62101,105.2081 c 0.81504,-0.42148 18.30925,-18.21887 18.77042,-19.09573 0.38478,-0.7316 0.48433,-24.91343 0.10413,-25.29362 -0.14371,-0.14372 -0.4538,-0.22037 -0.68908,-0.17034 -0.51899,0.11035 -44.07842,43.60713 -44.07842,44.01502 0,0.88464 0.53368,0.92282 12.89834,0.92282 10.11333,0 12.39155,-0.0663 12.99461,-0.37815 z m 131.34772,-76.08456 13.43963,-0.002 0.64944,-0.64943 c 0.62999,-0.62999 0.64943,-0.76465 0.64943,-4.49792 0,-3.49571 -0.0485,-3.89699 -0.52917,-4.37765 -0.5115,-0.5115 -0.88194,-0.52917 -11.09527,-0.52917 -6.66917,0 -10.84082,0.1016 -11.31094,0.27547 -0.40966,0.15151 -2.62007,2.18131 -4.91202,4.51067 -5.00199,5.08363 -5.2447,5.72647 -2.05052,5.43092 0.94589,-0.0875 7.76762,-0.15997 15.15942,-0.16101 z M 320.92411,11.00087 c 0.61347,-0.10421 2.879,-2.219612 9.92187,-9.264397 l 9.12687,-9.129353 0.13229,-12.632809 c 0.0728,-6.948046 0.0898,-12.781641 0.0378,-12.963542 -0.052,-0.181901 -0.29993,-0.330729 -0.55107,-0.330729 -0.52612,0 -43.49112,42.90737 -43.63481,43.57628 -0.0522,0.24303 0.0785,0.5688 0.29049,0.72394 0.39103,0.28619 23.0019,0.30508 24.67652,0.0206 z m 47.49145,-0.24827 c 4.36455,-0.11201 4.93395,-0.21226 5.13351,-0.90377 0.22163,-0.76796 0.28475,-12.330922 0.0692,-12.67556 -0.11377,-0.181901 -0.35916,-0.330729 -0.54531,-0.330729 -0.50607,0 -13.38865,12.984949 -13.38865,13.495039 0,0.73881 0.29283,0.81677 2.50095,0.66582 1.17109,-0.08 3.97473,-0.19291 6.2303,-0.2508 z m -7.27967,-39.035959 c 6.53301,-6.543202 11.96774,-12.056751 12.07719,-12.252328 0.10945,-0.19558 0.22074,-6.107012 0.24731,-13.136518 0.0392,-10.385106 -0.0176,-12.821662 -0.30338,-12.998266 -0.19342,-0.119541 -0.47847,-0.135752 -0.63345,-0.03602 -0.63583,0.409155 -23.6301,23.772517 -23.89831,24.281909 -0.32191,0.611376 -0.51224,25.245072 -0.19897,25.751953 0.0972,0.157305 0.32406,0.286006 0.50409,0.286006 0.18003,0 5.67252,-5.353529 12.20552,-11.896733 z"
       id="path1091" />
  </g>
</svg>
