<?xml version="1.0" encoding="UTF-8" standalone="no"?>
<!-- Created with Inkscape (http://www.inkscape.org/) -->

<svg
   width="266.70001mm"
   height="266.70001mm"
   viewBox="0 0 266.70001 266.70001"
   version="1.1"
   id="svg1590"
   inkscape:version="1.1.1 (3bf5ae0d25, 2021-09-20)"
   sodipodi:docname="right-top.svg"
   xmlns:inkscape="http://www.inkscape.org/namespaces/inkscape"
   xmlns:sodipodi="http://sodipodi.sourceforge.net/DTD/sodipodi-0.dtd"
   xmlns="http://www.w3.org/2000/svg"
   xmlns:svg="http://www.w3.org/2000/svg">
  <sodipodi:namedview
     id="namedview1592"
     pagecolor="#ffffff"
     bordercolor="#666666"
     borderopacity="1.0"
     inkscape:pageshadow="2"
     inkscape:pageopacity="0.0"
     inkscape:pagecheckerboard="0"
     inkscape:document-units="mm"
     showgrid="false"
     inkscape:lockguides="true"
     inkscape:zoom="0.27464869"
     inkscape:cx="471.51145"
     inkscape:cy="882.94615"
     inkscape:window-width="1920"
     inkscape:window-height="1057"
     inkscape:window-x="1358"
     inkscape:window-y="-8"
     inkscape:window-maximized="1"
     inkscape:current-layer="layer1" />
  <defs
     id="defs1587" />
  <g
     inkscape:label="Layer 1"
     inkscape:groupmode="layer"
     id="layer1"
     transform="translate(-142.07009,99.407246)">
    <path
       style="fill:#ffffff;stroke-width:0.264583"
       d="m 400.56703,147.51516 c -10e-4,-19.71566 -0.003,-19.78051 -0.5648,-20.70365 -0.57386,-0.94257 -18.61503,-19.00199 -26.43159,-26.45833 -2.36454,-2.255575 -4.97291,-4.934481 -5.79637,-5.953127 C 365.52463,91.6172 311.1312,37.46693 310.24829,37.13125 c -0.52016,-0.197765 -6.19813,-0.28317 -18.1035,-0.272304 -14.58041,0.01331 -17.40506,-0.04358 -17.71833,-0.356846 -0.3136,-0.313603 -0.36762,-3.122925 -0.34077,-17.721948 0.0278,-15.0851695 -0.0213,-17.4767463 -0.37624,-18.3260985 -0.28351,-0.6785373 -8.42678,-9.0163707 -26.66698,-27.3041035 -30.03971,-30.118012 -29.77438,-29.856537 -31.24441,-30.789866 -1.47972,-0.939482 -7.92813,-7.533468 -8.50247,-8.694412 -0.53821,-1.087927 -23.4548,-24.18617 -24.59327,-24.788218 -0.68165,-0.360473 -3.09049,-0.404392 -19.98785,-0.364423 -12.63434,0.02989 -19.45787,-0.04774 -19.92858,-0.2267 l -0.7158,-0.272146 v -3.710715 -3.710716 h 133.35001 133.35 V 33.942759 167.29276 h -4.10104 -4.10104 l -10e-4,-19.7776 z m -0.0745,-33.07292 c 0.11426,-0.25466 0.14822,-6.2049 0.0755,-13.22274 L 400.43572,88.459781 388.66177,76.62069 c -6.47568,-6.511499 -11.96319,-11.920821 -12.19447,-12.020715 -1.09247,-0.47186 -1.10417,-0.329914 -1.05273,12.770351 0.045,11.452109 0.0893,12.594101 0.51458,13.265844 0.25596,0.404262 4.50561,4.809794 9.44366,9.79007 4.93806,4.98028 10.14695,10.27545 11.57532,11.76704 1.42838,1.49159 2.76346,2.71198 2.96687,2.71198 0.2034,0 0.4633,-0.20836 0.57756,-0.46302 z M 367.25801,68.470885 c -0.0482,-9.949254 -0.13667,-12.814615 -0.4085,-13.229167 -0.78228,-1.192972 -17.53458,-17.844223 -18.21088,-18.101027 -0.93912,-0.356603 -25.04316,-0.41455 -25.39666,-0.06106 -0.13557,0.135575 -0.20557,0.436666 -0.15554,0.669095 0.05,0.232428 9.73502,10.114923 21.52221,21.961102 17.30183,17.388426 21.55453,21.531047 22.07106,21.499781 l 0.63982,-0.03873 z m 33.51705,2.113204 c 0.0411,-3.199554 0.005,-6.103435 -0.0813,-6.453069 -0.13785,-0.561393 -40.71875,-41.932496 -48.56766,-49.51337 -2.6469,-2.556505 -3.41871,-3.675097 -2.55652,-3.705183 0.1819,-0.0063 11.53303,-0.0013 25.22474,0.01106 23.55703,0.02138 24.92511,-0.0029 25.47289,-0.45148 l 0.57886,-0.4740751 -0.003,-50.3895539 c -0.002,-41.42557 -0.0648,-50.451797 -0.35243,-50.739417 -0.2876,-0.287597 -9.22279,-0.35025 -50.20881,-0.352063 l -49.85896,-0.0022 -0.46302,0.566239 c -0.43734,0.534829 -0.46302,3.336493 -0.46302,50.507499 V 9.5297278 l 0.55801,0.7089512 0.55766,0.708954 16.60977,-0.03744 c 10.93974,-0.02466 16.77823,0.05534 17.10327,0.234337 0.27144,0.149479 15.13582,14.928218 33.03197,32.841645 19.33186,19.35052 32.70169,32.538497 32.94063,32.492576 0.34255,-0.06583 0.41325,-0.93962 0.47692,-5.89466 z M 310.60968,1.2415461 c -2.0571,-1.0765605 -2.38125,-1.3278882 -2.38125,-1.8462784 0,-0.2174558 0.92273,-1.3764631 2.05052,-2.5755734 2.57819,-2.7412422 5.23872,-6.6887385 6.81274,-10.1082613 2.42745,-5.273535 2.32806,-5.176229 4.59601,-4.499808 3.52214,1.05048 3.6396,1.234607 2.42282,3.798242 -3.36338,7.0863486 -5.17447,9.9457696 -9.14901,14.4448664 -1.01111,1.1445532 -1.72262,1.7292877 -2.08371,1.7124363 -0.30158,-0.014076 -1.32223,-0.4306067 -2.26812,-0.9256236 z m 75.84077,0.355899 c -0.20429,-0.3274219 -1.2393,-2.0835938 -2.30003,-3.9026043 -2.432,-4.1705532 -6.02662,-9.3820268 -8.54901,-12.3943038 -1.08407,-1.294616 -1.16246,-1.640773 -0.49954,-2.205902 0.51275,-0.437116 3.6708,-1.539378 4.41042,-1.539378 0.63632,0 1.60435,1.077206 4.75726,5.293823 2.43146,3.2517688 3.89595,5.3626335 6.60681,9.5228441 0.52153,0.8003646 1.20125,1.7677633 1.51048,2.1497714 0.78912,0.9748335 0.36838,1.6596175 -1.26901,2.0653958 -0.69599,0.1724818 -1.70937,0.6043162 -2.25195,0.9596358 -1.2278,0.8040344 -1.93613,0.8189093 -2.41543,0.050718 z M 338.39093,0.94816285 C 337.60951,0.6740995 337.3326,-0.035013 337.3326,-1.7620384 c 0,-2.0554951 -0.63533,-7.7170148 -1.21189,-10.7993286 -0.60407,-3.229372 -0.37934,-3.590341 2.43347,-3.908574 1.43732,-0.162615 1.66054,-0.119356 2.29036,0.443866 0.61467,0.549677 0.77957,1.092459 1.38379,4.554841 0.65175,3.7346735 1.25825,8.68992 1.26193,10.310276 0.002,1.0578228 -0.52049,1.4573039 -2.32882,1.7791299 -0.86894,0.1546436 -1.75848,0.32347427 -1.97676,0.3751765 -0.21828,0.0517049 -0.57547,0.031369 -0.79375,-0.0451856 z m 22.225,-0.34290525 c -0.29104,-0.2910417 -0.5299,-0.7375261 -0.53081,-0.9921876 -0.005,-1.3136245 -3.18459,-10.724203 -4.4855,-13.274188 -1.07137,-2.10008 -0.67181,-2.6087 2.36424,-3.009538 2.65665,-0.350745 2.74759,-0.279321 4.24937,3.337325 1.4493,3.4902668 4.21786,11.5266098 4.22106,12.2525471 0.004,0.811612 -0.46249,1.0944331 -2.7804,1.6872559 -2.52051,0.6446388 -2.39205,0.6446917 -3.03796,-0.00121 z M 309.97729,-23.17512 c -0.48209,-0.53271 -0.55016,-0.980657 -0.47441,-3.122078 0.0788,-2.228612 0.13152,-2.248673 5.70793,-2.173219 4.98656,0.06747 5.96488,-0.100507 5.99872,-1.029989 0.009,-0.249541 0.0215,-3.782266 0.0276,-7.8505 l 0.0111,-7.396787 -0.61849,-0.500822 c -0.57142,-0.462714 -1.03825,-0.493858 -6.13496,-0.409278 -6.5094,0.108021 -6.2663,0.217315 -6.2663,-2.817159 0,-2.948549 -0.29444,-2.820252 6.4009,-2.788989 5.70076,0.02662 5.72064,0.02471 6.20753,-0.594384 0.43903,-0.558245 0.48802,-1.168109 0.48424,-6.027193 l -0.004,-5.406102 -0.65725,-0.07478 c -0.53514,-0.06089 -1.34472,0.614969 -4.35786,3.638021 -2.68651,2.695334 -3.87303,3.7128 -4.32971,3.7128 -0.37652,0 -1.25428,-0.54162 -2.18636,-1.349094 -1.89823,-1.644473 -2.0666,-2.510584 -0.70673,-3.635717 5.75221,-4.759301 13.25199,-14.139666 16.61155,-20.776953 1.3726,-2.71176 1.82161,-3.017634 3.51337,-2.3934 0.61448,0.226733 1.61683,0.574583 2.22743,0.772998 1.49209,0.484851 2.1971,0.881971 2.1971,1.237584 0,0.162324 -0.48629,0.842744 -1.08065,1.512045 -1.17845,1.327058 -3.9489,5.519827 -3.94238,5.96638 0.0143,0.97733 -0.46083,0.962109 29.49272,0.94489 26.82235,-0.01542 29.09239,0.01736 29.54461,0.426623 0.38981,0.352769 0.48987,0.829959 0.48987,2.336123 0,2.87206 0.0499,2.841737 -4.61109,2.802867 -3.14384,-0.02622 -4.04635,0.04896 -4.5501,0.379031 l -0.62839,0.411739 v 7.625811 c 0,7.051741 0.0364,7.658772 0.48385,8.063691 0.41826,0.378521 1.24561,0.437882 6.10281,0.437882 7.08898,0 7.16072,0.02847 7.16762,2.844271 0.007,2.736096 0.0674,2.71198 -6.82455,2.71198 -4.56248,0 -5.87776,0.07852 -6.28385,0.375118 -0.48104,0.35134 -0.52197,0.837912 -0.64588,7.676132 -0.13076,7.216333 -0.0352,8.665554 0.5969,9.05624 0.17817,0.110115 2.60782,0.166265 5.39923,0.124778 4.83859,-0.07191 5.10092,-0.0498 5.625,0.474276 0.78865,0.788657 0.80245,4.001127 0.0205,4.78304 -0.52445,0.524441 -0.88195,0.529167 -40.04337,0.529167 -38.32694,0 -39.52772,-0.01492 -39.96403,-0.497044 z m 27.65197,-5.833796 c 0.37056,-0.451641 0.43467,-1.533662 0.47092,-7.948038 l 0.042,-7.42522 -0.65733,-0.657328 c -0.64672,-0.646716 -0.7275,-0.657325 -5.00566,-0.657325 -3.7547,0 -4.42677,0.0635 -4.9228,0.465166 -0.56416,0.456833 -0.57473,0.598303 -0.58994,7.89454 -0.008,4.086154 0.0608,7.669806 0.15409,7.963665 0.28509,0.898258 1.12925,1.041109 5.68934,0.962777 4.00001,-0.06871 4.42862,-0.121915 4.81942,-0.598237 z m 16.56732,0.400876 c 0.35267,-0.112617 0.67364,-0.501949 0.79375,-0.962798 0.1109,-0.425548 0.14211,-4.059179 0.0694,-8.074739 -0.12391,-6.83822 -0.16485,-7.324792 -0.64589,-7.676132 -0.39521,-0.288658 -1.54265,-0.375118 -4.97833,-0.375118 -4.33088,0 -5.31611,0.152402 -5.81496,0.899504 -0.10691,0.160118 -0.19621,3.695716 -0.19844,7.856884 -0.004,6.875764 0.0382,7.60321 0.45897,7.976331 0.25466,0.225814 0.69278,0.452625 0.97359,0.504028 0.92362,0.169072 8.73667,0.04533 9.34195,-0.14796 z m 17.86258,-0.437134 c 0.41614,-0.512913 0.46302,-1.314172 0.46302,-7.914034 0,-7.028429 -0.0235,-7.373237 -0.54837,-8.040479 l -0.54837,-0.69714 h -4.88761 c -4.83655,0 -4.8944,0.0068 -5.53705,0.649433 l -0.64943,0.64943 v 7.361489 c 0,7.926515 0.0765,8.39882 1.39139,8.585613 0.32614,0.04633 2.67658,0.05997 5.22319,0.03031 4.38949,-0.05112 4.65428,-0.0836 5.09323,-0.624622 z m -34.57869,-22.583138 c 0.48391,-0.353547 0.51809,-0.804646 0.59152,-7.805444 l 0.0779,-7.430212 -0.66122,-0.661221 c -0.6516,-0.651597 -0.72453,-0.661222 -5.00956,-0.661222 -3.78304,0 -4.42433,0.06153 -4.93285,0.473302 -0.578,0.46804 -0.5845,0.556448 -0.5845,7.954055 0,6.758673 0.0448,7.530233 0.46391,7.993365 0.42457,0.46914 0.84879,0.512611 5.00254,0.512611 3.50018,0 4.65614,-0.08585 5.05222,-0.375234 z m 17.13179,-0.09808 c 0.37186,-0.410898 0.4325,-1.462165 0.45988,-7.972198 0.0277,-6.579593 -0.0209,-7.551394 -0.39608,-7.927208 -0.35222,-0.352803 -1.20304,-0.443217 -4.82569,-0.51281 -2.41895,-0.04647 -4.66888,-0.01654 -4.99984,0.06654 -1.42614,0.357937 -1.43252,0.395217 -1.43252,8.371222 0,7.036657 0.0253,7.414697 0.52917,7.918601 0.49071,0.490707 0.88194,0.529166 5.38295,0.529166 4.32685,0 4.90029,-0.05138 5.28213,-0.473315 z m 17.49805,-0.114724 c 0.34882,-0.498012 0.41125,-1.703054 0.40782,-7.871354 -0.002,-4.005824 -0.0915,-7.414319 -0.19844,-7.574437 -0.50261,-0.752729 -1.48325,-0.899503 -6.00985,-0.899503 -4.55805,0 -4.67339,0.01376 -5.29089,0.631258 l -0.63126,0.631259 -0.023,7.301389 c -0.022,6.986998 -3e-5,7.324384 0.511,7.835408 0.49901,0.499015 0.87121,0.534019 5.67839,0.534019 5.01611,0 5.15464,-0.01466 5.55625,-0.588039 z m 28.63277,102.651063 c 0.11346,-0.181901 0.17084,-3.069167 0.12751,-6.416146 -0.0682,-5.268786 -0.13817,-6.144551 -0.5214,-6.526078 -0.37154,-0.369887 -1.44058,-0.481573 -6.65643,-0.695415 -3.4176,-0.140115 -6.3644,-0.196971 -6.54844,-0.126344 -0.18405,0.07063 -0.33464,0.333952 -0.33464,0.585171 0,0.520642 12.87391,13.509541 13.38994,13.509541 0.18544,0 0.43,-0.148828 0.54346,-0.330729 z M 339.76153,28.563542 c 0.099,-0.154446 0.0751,-0.476875 -0.0532,-0.716508 -0.33105,-0.618564 -7.85163,-7.993687 -8.54613,-8.380836 -0.43688,-0.243536 -5.19781,-0.323625 -19.66023,-0.330729 -15.55816,-0.0076 -19.13776,-0.07446 -19.37611,-0.361657 -0.21068,-0.253846 -0.31849,-15.5692586 -0.38586,-54.810535 l -0.0935,-54.458252 -0.60189,-0.487385 c -0.52621,-0.426096 -1.11204,-0.487386 -4.65862,-0.487386 -3.89218,0 -4.07344,0.02385 -4.46861,0.588038 -0.36979,0.527947 -0.41188,6.608479 -0.41188,59.50194 0,55.720215 0.0251,58.944052 0.46302,59.470073 l 0.46302,0.55617 27.91355,0.167757 c 15.35245,0.09227 27.96446,0.213677 28.02669,0.269803 0.18232,0.164418 1.19349,-0.214294 1.38974,-0.520493 z m 60.5419,-0.177033 c 0.48014,-0.480134 0.52917,-0.881944 0.52917,-4.336315 0,-3.353403 -0.0602,-3.881588 -0.50551,-4.431771 l -0.5055,-0.624623 -15.17106,-0.132329 c -8.34408,-0.07278 -15.31988,-0.08981 -15.50179,-0.03784 -0.1819,0.05197 -0.33072,0.30162 -0.33072,0.554779 0,0.576492 8.09628,8.899422 8.99583,9.247656 0.3843,0.148772 5.12362,0.263094 11.31094,0.272836 10.30842,0.01624 10.66642,-1.75e-4 11.17864,-0.512395 z M 273.7145,-12.911472 c 0.31355,-0.507317 0.12119,-24.611439 -0.20128,-25.222553 -0.3092,-0.585988 -17.66462,-18.285995 -18.54438,-18.912578 -0.42805,-0.304872 -2.72064,-0.36475 -13.09611,-0.342033 -12.66495,0.02773 -13.21254,0.06679 -12.94439,0.923423 0.177,0.565457 43.76302,43.841304 44.15553,43.841304 0.2491,0 0.53289,-0.129403 0.63063,-0.287563 z m -0.11662,-38.407751 c 0.0164,-0.181901 0.008,-3.069167 -0.0181,-6.416146 -0.0459,-5.829145 -0.0729,-6.121213 -0.63947,-6.935423 -0.74856,-1.075719 -25.66511,-26.16258 -26.34788,-26.527988 -0.30251,-0.1619 -2.90574,-0.270966 -6.46751,-0.270966 -5.72786,0 -5.97251,0.02111 -6.24985,0.539328 -0.26064,0.487001 1.2718,2.123502 15.79456,16.867188 8.84576,8.980323 17.56785,17.845907 19.38241,19.701298 2.3344,2.386931 3.47711,3.373438 3.90758,3.373438 0.33462,0 0.62183,-0.148828 0.63826,-0.330729 z m -28.40643,-14.360232 c 1.04052,-0.343242 -0.0783,-1.596538 -11.8662,-13.292047 -6.70831,-6.655753 -12.34017,-12.183372 -12.51525,-12.283597 -0.41856,-0.239612 -24.88151,-0.337335 -25.26403,-0.100924 -0.16205,0.10015 -0.29463,0.352913 -0.29463,0.561696 0,0.437081 24.2415,24.962347 24.92894,25.220747 0.48249,0.181364 24.44796,0.07991 25.01117,-0.105875 z m 28.59521,-11.436644 c 0.13167,-0.256974 0.14575,-1.16947 0.0316,-2.050521 -0.1131,-0.873125 -0.21568,-3.760391 -0.22796,-6.416146 -0.0207,-4.473076 -0.0616,-4.867947 -0.55602,-5.362347 -0.51101,-0.511001 -0.81765,-0.530694 -7.2099,-0.463021 -6.54148,0.06925 -6.67779,0.08182 -6.7551,0.62293 -0.0596,0.417437 1.58577,2.209775 6.74034,7.342188 3.75058,3.734466 7.02636,6.789938 7.27949,6.789938 0.25314,0 0.56701,-0.20836 0.69751,-0.463021 z"
       id="path1990" />
  </g>
</svg>
